<svg width="236" height="58" viewBox="0 0 236 58" fill="none" xmlns="http://www.w3.org/2000/svg">
<path d="M68.7236 40.7326H85.6139V35.64H74.7268V16.4575H68.7236V40.7326Z" fill="#151515"/>
<path d="M95.6208 37.3372C93.2128 37.3372 91.9579 35.2323 91.9579 32.0748C91.9579 28.9173 93.2128 26.7784 95.6208 26.7784C98.0289 26.7784 99.3177 28.9173 99.3177 32.0748C99.3177 35.2323 98.0289 37.3372 95.6208 37.3372ZM95.6547 41.2756C101.251 41.2756 104.914 37.3033 104.914 32.0748C104.914 26.8463 101.251 22.874 95.6547 22.874C90.0925 22.874 86.3617 26.8463 86.3617 32.0748C86.3617 37.3033 90.0925 41.2756 95.6547 41.2756Z" fill="#151515"/>
<path d="M114.6 46.742C117.178 46.742 119.45 46.1648 120.977 44.8068C122.367 43.5506 123.283 41.6493 123.283 39.0351V23.3496H117.992V25.2169H117.924C116.907 23.757 115.347 22.8403 113.04 22.8403C108.733 22.8403 105.748 26.4392 105.748 31.5318C105.748 36.8622 109.377 39.782 113.278 39.782C115.38 39.782 116.703 38.9332 117.721 37.7789H117.856V39.5104C117.856 41.6154 116.873 42.8376 114.533 42.8376C112.701 42.8376 111.785 42.0567 111.48 41.14H106.121C106.664 44.7728 109.818 46.742 114.6 46.742ZM114.566 35.6739C112.498 35.6739 111.141 33.9763 111.141 31.3621C111.141 28.7139 112.498 27.0163 114.566 27.0163C116.873 27.0163 118.094 28.9855 118.094 31.3281C118.094 33.7726 116.974 35.6739 114.566 35.6739Z" fill="#151515"/>
<path d="M134.162 37.3372C131.754 37.3372 130.499 35.2323 130.499 32.0748C130.499 28.9173 131.754 26.7784 134.162 26.7784C136.57 26.7784 137.859 28.9173 137.859 32.0748C137.859 35.2323 136.57 37.3372 134.162 37.3372ZM134.196 41.2756C139.792 41.2756 143.456 37.3033 143.456 32.0748C143.456 26.8463 139.792 22.874 134.196 22.874C128.634 22.874 124.903 26.8463 124.903 32.0748C124.903 37.3033 128.634 41.2756 134.196 41.2756Z" fill="#151515"/>
<path d="M145.069 40.7326H150.598V23.3496H145.069V40.7326ZM145.069 20.9391H150.598V16.4575H145.069V20.9391Z" fill="#151515"/>
<path d="M152.996 46.4704H158.524V38.9332H158.592C159.677 40.3931 161.271 41.2758 163.51 41.2758C168.055 41.2758 171.073 37.677 171.073 32.0411C171.073 26.8126 168.258 22.8403 163.646 22.8403C161.271 22.8403 159.576 23.8928 158.389 25.4546H158.287V23.3496H152.996V46.4704ZM162.085 36.998C159.711 36.998 158.355 35.0628 158.355 32.2448C158.355 29.4269 159.576 27.2879 161.984 27.2879C164.358 27.2879 165.477 29.2571 165.477 32.2448C165.477 35.1986 164.188 36.998 162.085 36.998Z" fill="#151515"/>
<path d="M180.075 41.2758C184.62 41.2758 187.978 39.3067 187.978 35.5041C187.978 31.0565 184.382 30.2756 181.33 29.7664C179.125 29.359 177.158 29.1892 177.158 27.967C177.158 26.8805 178.21 26.3713 179.566 26.3713C181.093 26.3713 182.144 26.8466 182.347 28.4083H187.435C187.164 24.9793 184.518 22.8403 179.6 22.8403C175.496 22.8403 172.105 24.7416 172.105 28.4083C172.105 32.4825 175.327 33.2973 178.345 33.8066C180.652 34.214 182.754 34.3837 182.754 35.9455C182.754 37.0659 181.703 37.677 180.041 37.677C178.21 37.677 177.057 36.8282 176.853 35.0967H171.63C171.8 38.9332 174.988 41.2758 180.075 41.2758Z" fill="#151515"/>
<path d="M195.486 41.2419C197.894 41.2419 199.42 40.2913 200.675 38.5937H200.777V40.7326H206.068V23.3496H200.539V33.0597C200.539 35.1307 199.386 36.5566 197.487 36.5566C195.723 36.5566 194.875 35.5041 194.875 33.6029V23.3496H189.381V34.7572C189.381 38.6277 191.484 41.2419 195.486 41.2419Z" fill="#151515"/>
<path d="M208.473 40.7326H214.001V30.9886C214.001 28.9176 215.019 27.4577 216.748 27.4577C218.41 27.4577 219.19 28.5441 219.19 30.4115V40.7326H224.719V30.9886C224.719 28.9176 225.702 27.4577 227.466 27.4577C229.128 27.4577 229.908 28.5441 229.908 30.4115V40.7326H235.436V29.4269C235.436 25.5225 233.469 22.8403 229.535 22.8403C227.296 22.8403 225.431 23.791 224.074 25.8959H224.006C223.125 24.0286 221.395 22.8403 219.122 22.8403C216.613 22.8403 214.951 24.0286 213.865 25.828H213.764V23.3496H208.473V40.7326Z" fill="#151515"/>
<path fill-rule="evenodd" clip-rule="evenodd" d="M12.2299 5.50519C10.2081 6.92033 8.37987 8.59349 6.79281 10.477C13.2783 9.87423 21.5178 10.8584 31.0839 15.6464C41.2992 20.7592 49.525 20.9321 55.2497 19.8267C54.7303 18.2523 54.0762 16.7392 53.3017 15.3008C46.7484 15.9927 38.3471 15.0769 28.556 10.1765C22.3386 7.06456 16.858 5.78266 12.2299 5.50519ZM49.4735 9.84639C44.2984 4.0582 36.7776 0.415527 28.4068 0.415527C25.9486 0.415527 23.5634 0.729727 21.2896 1.32016C24.3692 2.16131 27.6407 3.3919 31.0839 5.11532C38.2524 8.7032 44.4412 9.85843 49.4735 9.84639ZM56.4737 25.3528C49.5576 26.7199 40.0072 26.4391 28.556 20.7076C17.8504 15.3492 9.32961 15.4167 3.5829 16.6951C3.28627 16.761 2.99663 16.8303 2.71398 16.9025C1.96159 18.5405 1.36101 20.263 0.930088 22.0516C1.39034 21.9285 1.86593 21.8116 2.35663 21.7023C9.32839 20.1515 19.1789 20.2188 31.0839 26.1775C41.7897 31.5359 50.3104 31.4684 56.0572 30.19C56.2541 30.1463 56.4481 30.101 56.6389 30.0543C56.6598 29.6083 56.6703 29.1594 56.6703 28.7082C56.6703 27.5729 56.6036 26.4532 56.4737 25.3528ZM55.7161 36.0251C48.8671 37.2237 39.5949 36.7637 28.556 31.2387C17.8504 25.8803 9.32961 25.9478 3.5829 27.2262C2.30729 27.5098 1.15978 27.8554 0.147512 28.2203C0.144752 28.3825 0.143372 28.5452 0.143372 28.7082C0.143372 44.3338 12.7973 57.0009 28.4068 57.0009C41.4887 57.0009 52.4948 48.1041 55.7161 36.0251Z" fill="#7F57F1"/>
</svg>
