<svg width="22" height="22" viewBox="0 0 22 22" fill="none" xmlns="http://www.w3.org/2000/svg">
<path d="M1.36399 11.958C0.983993 9.321 0.793993 8.002 1.33499 6.875C1.87499 5.748 3.02599 5.062 5.32699 3.692L6.71199 2.867C8.79999 1.622 9.84599 1 11 1C12.154 1 13.199 1.622 15.288 2.867L16.673 3.692C18.973 5.062 20.124 5.748 20.665 6.875C21.205 8.002 21.015 9.321 20.635 11.958L20.357 13.895C19.87 17.283 19.626 18.976 18.451 19.988C17.276 21 15.553 21 12.106 21H9.89399C6.44699 21 4.72399 21 3.54899 19.988C2.37399 18.976 2.12999 17.283 1.64299 13.895L1.36399 11.958Z" stroke="#B236FF" stroke-width="1.5"/>
</svg>
