<svg width="16" height="22" viewBox="0 0 16 22" fill="none" xmlns="http://www.w3.org/2000/svg">
<path d="M15.125 14.75C15.1235 16.0425 14.6094 17.2816 13.6955 18.1955C12.7816 19.1094 11.5425 19.6235 10.25 19.625H9.125V20.75C9.125 21.0484 9.00647 21.3345 8.79549 21.5455C8.58452 21.7565 8.29837 21.875 8 21.875C7.70163 21.875 7.41548 21.7565 7.2045 21.5455C6.99353 21.3345 6.875 21.0484 6.875 20.75V19.625H5.75C4.45753 19.6235 3.21842 19.1094 2.3045 18.1955C1.39058 17.2816 0.876489 16.0425 0.875 14.75C0.875 14.4516 0.993526 14.1655 1.2045 13.9545C1.41548 13.7435 1.70163 13.625 2 13.625C2.29837 13.625 2.58452 13.7435 2.7955 13.9545C3.00647 14.1655 3.125 14.4516 3.125 14.75C3.125 15.4462 3.40156 16.1139 3.89384 16.6062C4.38613 17.0984 5.05381 17.375 5.75 17.375H10.25C10.9462 17.375 11.6139 17.0984 12.1062 16.6062C12.5984 16.1139 12.875 15.4462 12.875 14.75C12.875 14.0538 12.5984 13.3861 12.1062 12.8938C11.6139 12.4016 10.9462 12.125 10.25 12.125H6.5C5.20707 12.125 3.96709 11.6114 3.05285 10.6971C2.13861 9.78291 1.625 8.54293 1.625 7.25C1.625 5.95707 2.13861 4.71709 3.05285 3.80285C3.96709 2.88861 5.20707 2.375 6.5 2.375H6.875V1.25C6.875 0.951631 6.99353 0.665483 7.2045 0.454505C7.41548 0.243526 7.70163 0.125 8 0.125C8.29837 0.125 8.58452 0.243526 8.79549 0.454505C9.00647 0.665483 9.125 0.951631 9.125 1.25V2.375H9.5C10.7925 2.37649 12.0316 2.89058 12.9455 3.8045C13.8594 4.71842 14.3735 5.95753 14.375 7.25C14.375 7.54837 14.2565 7.83452 14.0455 8.0455C13.8345 8.25647 13.5484 8.375 13.25 8.375C12.9516 8.375 12.6655 8.25647 12.4545 8.0455C12.2435 7.83452 12.125 7.54837 12.125 7.25C12.125 6.55381 11.8484 5.88613 11.3562 5.39384C10.8639 4.90156 10.1962 4.625 9.5 4.625H6.5C5.80381 4.625 5.13613 4.90156 4.64384 5.39384C4.15156 5.88613 3.875 6.55381 3.875 7.25C3.875 7.94619 4.15156 8.61387 4.64384 9.10616C5.13613 9.59844 5.80381 9.875 6.5 9.875H10.25C11.5425 9.87649 12.7816 10.3906 13.6955 11.3045C14.6094 12.2184 15.1235 13.4575 15.125 14.75Z" fill="#B236FF"/>
</svg>
