<svg width="16" height="16" viewBox="0 0 16 16" fill="none" xmlns="http://www.w3.org/2000/svg">
<path d="M8.34373 12.3539L4.84607 15.0244C4.67276 15.1662 4.4837 15.2333 4.27888 15.2257C4.07407 15.2182 3.89288 15.1589 3.73533 15.048C3.57778 14.9377 3.45583 14.788 3.36949 14.599C3.28315 14.4099 3.27906 14.2051 3.3572 13.9845L4.70427 9.61246L1.27752 7.17828C1.08845 7.05223 0.97029 6.88681 0.923024 6.68199C0.875759 6.47717 0.883636 6.28811 0.946657 6.1148C1.00968 5.94149 1.11996 5.78772 1.27752 5.65349C1.43507 5.51925 1.62413 5.45245 1.8447 5.45308H6.07498L7.44568 0.915581C7.52446 0.695008 7.64672 0.525482 7.81246 0.407003C7.97821 0.288524 8.15529 0.229599 8.34373 0.23023C8.53279 0.23023 8.71019 0.289469 8.87594 0.407949C9.04168 0.526428 9.16363 0.695638 9.24177 0.915581L10.6125 5.45308H14.8428C15.0633 5.45308 15.2524 5.5202 15.4099 5.65443C15.5675 5.78867 15.6778 5.94212 15.7408 6.1148C15.8038 6.28811 15.8117 6.47717 15.7644 6.68199C15.7172 6.88681 15.599 7.05223 15.4099 7.17828L11.9832 9.61246L13.3303 13.9845C13.409 14.2051 13.4052 14.4099 13.3189 14.599C13.2326 14.788 13.1103 14.9377 12.9521 15.048C12.7946 15.1583 12.6134 15.2175 12.4086 15.2257C12.2038 15.2339 12.0147 15.1668 11.8414 15.0244L8.34373 12.3539Z" fill="#FFBB36"/>
</svg>
